<?xml version="1.0" encoding="UTF-8"?>
<svg id="_图层_1" data-name="图层 1" xmlns="http://www.w3.org/2000/svg" viewBox="0 0 18.42 18.43">
  <g id="icon-1">
    <path d="m9.21,0C4.12,0,0,4.12,0,9.2s4.13,9.23,9.21,9.23,9.21-4.13,9.21-9.23S14.29,0,9.21,0Z" style="fill: #000; stroke-width: 0px;"/>
    <g>
      <polygon points="13.43 12.77 2.45 12.77 2.02 13.28 11.51 13.28 10.17 17.22 13.43 12.77" style="fill: #fff; stroke-width: 0px;"/>
      <polygon points="4.98 5.91 15.96 5.91 16.39 5.39 6.9 5.39 8.24 1.45 4.98 5.91" style="fill: #fff; stroke-width: 0px;"/>
    </g>
    <g>
      <path d="m3.36,7.81c.56,0,1.1-.21,1.38-.7h.55l-.88,4.2h-.73l.64-3.06c-.36.08-.7.1-1.07.1l.11-.54Z" style="fill: #fff; stroke-width: 0px;"/>
      <path d="m6.7,7.12h2.31l-.12.61h-1.75l-.31.99.01.01c.23-.17.49-.24.78-.24.72,0,1.18.53,1.18,1.23,0,1.01-.71,1.67-1.7,1.67-.79,0-1.38-.43-1.35-1.27h.68c.02.45.24.7.71.7.56,0,.97-.44.97-1,0-.52-.29-.8-.73-.8-.34,0-.6.14-.77.38h-.61l.7-2.28Z" style="fill: #fff; stroke-width: 0px;"/>
      <path d="m9.61,7.03h.77l.14,3.27h.01l1.48-3.27h.74l.22,3.27h.01l1.4-3.27h.77l-1.99,4.28h-.76l-.2-3.27h-.01l-1.5,3.27h-.76l-.32-4.28Z" style="fill: #fff; stroke-width: 0px;"/>
    </g>
  </g>
</svg>